<svg width="677" height="60" viewBox="0 0 677 60" fill="none" xmlns="http://www.w3.org/2000/svg">
<path d="M640.721 30.6415C640.721 45.0003 640.721 52.9489 640.721 54.5301C640.678 57.0087 638.669 58.9745 636.234 58.9318C636.191 58.9318 636.105 58.9318 636.063 58.9318C633.883 58.889 632.131 57.0514 632.174 54.8292C632.174 54.7438 632.174 54.6156 632.217 54.4874C632.217 50.855 632.217 21.8381 632.217 18.2057C632.088 15.9407 633.798 13.9749 636.063 13.7612C637.729 13.8467 639.225 14.7442 640.122 16.0689C641.105 17.351 645.849 23.7612 654.396 35.2568C663.199 23.2911 668.114 16.6245 669.097 15.2997C670.592 13.5476 673.242 13.3767 674.994 14.8724C675.934 15.6843 676.49 16.8809 676.447 18.163C676.447 21.7954 676.447 50.855 676.447 54.4874C676.703 56.6669 675.122 58.6327 672.9 58.8891C672.814 58.8891 672.686 58.9318 672.601 58.9318C670.336 58.9745 668.498 57.2224 668.455 54.9575C668.413 54.8293 668.455 54.6583 668.455 54.4874C668.455 52.9062 668.455 44.9576 668.455 30.6415C662.045 38.8038 658.456 43.2909 657.729 44.1883C655.421 47.0516 652.515 47.0516 650.379 44.1883C649.097 42.3935 645.892 37.8636 640.721 30.6415Z" fill="#8A898D"/>
<path d="M612.174 15.727L616.96 19.0603L620.806 23.5902L623.328 29.3594L624.268 36.4106L623.328 43.419L620.806 49.231L616.96 53.7608L612.174 57.0087L606.789 58.9744L601.191 59.6155L595.208 59.1881L589.567 57.3506L584.525 54.1455L580.507 49.5728L577.815 43.6327L576.875 36.4106L577.815 29.1457L580.507 23.2483L584.525 18.633L589.567 15.3424L595.208 13.3766L601.191 12.7356L606.789 13.633L612.174 15.727ZM589.781 25.9833L586.661 30.9405L585.636 36.9234L586.918 42.6071L590.123 47.2652L594.781 50.4703L600.465 51.7523L605.977 50.7694L610.935 47.9062L614.482 43.1199L615.806 36.4533L614.482 29.7867L610.935 25.0004L605.977 22.1372L600.465 21.1543L594.567 22.5646L589.781 25.9833Z" fill="#8A898D"/>
<path d="M531.448 36.3252C531.448 23.8894 539.268 13.163 554.097 13.163C559.567 13.0775 564.866 15.1288 568.841 18.8895C570.721 20.257 571.063 22.9065 569.695 24.7441C568.328 26.5817 565.678 26.9663 563.841 25.5988C563.584 25.3851 563.371 25.1714 563.157 24.9578C560.849 22.4364 557.516 21.1544 554.14 21.4108C544.14 21.4108 539.439 28.4193 539.439 36.2824C539.439 44.1883 544.14 51.6669 554.14 51.6669C557.858 51.5815 561.49 50.0857 564.183 47.5217C566.063 46.1114 568.67 46.4533 570.123 48.2909C571.533 50.1712 571.234 52.8207 569.439 54.3592C564.909 58.5472 559.439 59.4019 554.14 59.4019C538.456 59.4019 531.491 48.7609 531.491 36.2824" fill="#8A898D"/>
<path d="M516.277 53.3765C516.277 47.5646 525.636 47.5646 525.636 53.3765C525.636 53.5047 525.636 54.4449 525.636 54.5731C525.636 60.2995 516.277 60.6414 516.277 54.5731C516.277 54.3594 516.277 53.5902 516.277 53.3765Z" fill="#8A898D"/>
<path d="M466.32 14.5309C468.158 -0.981733 491.619 -3.7595 502.645 4.70196C508.115 9.10363 502.346 16.1121 497.517 12.5651C491.619 8.80447 478.158 7.00963 476.491 15.3856C474.355 28.5052 509.141 20.9839 508.585 42.2658C508.029 62.6075 478.585 63.0775 467.517 53.9323C465.209 52.0092 464.739 48.6332 466.406 46.1119C468.5 44.0179 470.808 43.2486 473.543 45.5563C480.081 50.0434 496.961 53.3768 498.158 42.0521C497.132 30.2146 463.842 37.3085 466.32 14.5737" fill="#E81F76"/>
<path d="M428.543 0.00076343C422.176 -0.0419712 415.979 1.71009 410.595 5.08613C408.372 6.49638 406.364 8.20577 404.612 10.1716C407.09 13.9749 408.842 18.2057 409.654 22.6501C409.954 21.8381 410.295 21.0689 410.723 20.3424C412.518 17.0519 415.295 14.4023 418.672 12.7357C421.407 11.3682 424.483 10.6844 427.56 10.6844C437.005 10.6844 447.09 17.1373 447.09 30.0859C447.09 43.0773 437.005 49.5302 427.56 49.5302C424.483 49.5302 421.449 48.8037 418.672 47.4362C415.295 45.7695 412.518 43.12 410.723 39.8294C410.295 39.0602 409.954 38.291 409.654 37.5218C408.8 35.1286 408.33 32.65 408.372 30.0859C408.372 30.0005 408.372 29.915 408.372 29.8295H408.287C408.373 23.5903 406.449 17.4792 402.86 12.3511C402.304 11.5818 401.749 10.8553 401.108 10.1716C395.338 4.01778 387.39 0.342641 378.928 0.00076343C372.604 -0.0419712 366.407 1.71009 361.023 5.08613C357.903 7.05193 355.168 9.65877 353.074 12.7357C346.322 23.3339 346.322 36.838 353.074 47.4362C355.168 50.5131 357.903 53.0771 361.065 55.0429C366.407 58.3335 372.646 59.9147 378.928 59.6156C387.347 59.7011 395.381 56.1968 401.108 50.0003C398.672 46.2396 397.005 42.0516 396.15 37.6927C393.116 45.0003 385.937 49.7011 377.988 49.5302C374.911 49.5302 371.877 48.8037 369.099 47.4362C365.723 45.7695 362.946 43.12 361.151 39.8294C358.031 33.7184 358.031 26.4535 361.151 20.3424C362.946 17.0519 365.723 14.4023 369.099 12.7357C371.877 11.3682 374.911 10.6844 377.988 10.6844C385.894 10.4708 393.116 15.1715 396.15 22.4792C397.09 24.915 397.561 27.4791 397.518 30.0859C397.39 36.2825 399.142 42.308 402.603 47.4362C402.603 47.4789 402.86 47.778 402.86 47.8208C403.415 48.59 404.014 49.2311 404.612 50.0003C406.364 51.9661 408.372 53.6754 410.595 55.0429C415.936 58.3335 422.176 59.9147 428.458 59.6156C442.774 59.6156 457.774 49.5302 457.774 30.0859C457.774 10.6844 442.774 0.727252 428.458 0.00076343" fill="#E81F76"/>
<path d="M296.963 22.7781C296.963 40.5557 296.963 50.4274 296.963 52.3932C296.963 55.4274 294.485 57.906 291.45 57.906C291.408 57.906 291.322 57.906 291.28 57.906C288.716 57.906 286.451 55.8975 286.451 52.3932C286.451 47.9061 286.451 11.838 286.451 7.35088C286.365 4.53039 288.459 2.09454 291.28 1.83813C293.587 1.83813 294.955 3.24837 296.322 4.70135C297.476 6.28253 303.331 14.1884 313.886 28.4618C324.826 13.6756 330.937 5.42787 332.134 3.80396C334.014 1.62449 337.305 1.41077 339.484 3.2911C340.638 4.27399 341.279 5.76972 341.279 7.30816C341.279 11.838 341.279 47.9061 341.279 52.3932C341.279 55.8975 339.014 57.906 336.45 57.906C333.672 57.9914 331.365 55.7693 331.322 52.9915C331.322 52.7778 331.322 52.6069 331.322 52.3932C331.322 50.4274 331.322 40.5557 331.322 22.7781C323.331 32.8635 318.886 38.4617 317.989 39.5728C315.126 43.1198 311.493 43.1198 308.886 39.5728C307.262 37.3506 303.331 31.7524 296.963 22.7781Z" fill="#E81F76"/>
<path d="M253.673 2.4798L254.1 2.69348L254.485 2.90717L254.869 3.16357L255.211 3.46274L255.553 3.80463L255.852 4.14645L256.109 4.53111L256.322 4.9157L256.536 5.34308L279.1 50.2145L279.741 52.2657L279.57 54.1033L278.801 55.6845L277.519 56.9238L275.938 57.7357L274.228 58.0776L272.519 57.7784L271.023 56.8811L269.827 55.1716L266.322 48.1632H236.793L233.374 55.1716L232.861 56.0264L232.263 56.7101L231.579 57.2229L230.81 57.6075L229.955 57.9066L229.058 58.0348L228.118 58.1203L227.177 58.0348L226.237 57.9066H226.152L225.297 57.3511L224.528 56.7101L223.93 55.9409L223.459 55.0862L223.16 54.146L222.989 53.2059L223.032 52.2229L223.203 51.2401L223.588 50.2572V50.2145L246.579 5.34308L247.006 4.48833L247.605 3.76185L248.288 3.12086L249.1 2.65077L249.955 2.30889L250.852 2.0952L251.792 2.05249L252.733 2.18069L253.673 2.4798ZM260.553 37.565L251.536 17.8216L241.707 37.565H260.553Z" fill="#E81F76"/>
<path d="M193.93 54.3164C181.238 27.7782 174.229 13.0347 172.819 10.0861C169.699 3.76132 179.144 -1.45234 182.648 5.17153C183.118 6.23989 185.511 11.6245 189.785 21.2825L198.972 42.3934L207.989 21.2825C212.263 11.6245 214.656 6.23989 215.126 5.17153C218.331 -0.896792 227.605 2.94932 224.87 9.57319C222.861 14.0603 206.536 49.8292 204.485 54.3164C202.648 59.3591 196.964 60.5556 193.93 54.3164Z" fill="#E81F76"/>
<path d="M124.4 14.5309C126.238 -0.981733 149.699 -3.7595 160.725 4.70196C166.152 9.10363 160.426 16.1121 155.597 12.5651C149.699 8.80447 136.238 7.00963 134.571 15.3856C132.392 28.5052 167.221 20.9839 166.665 42.2658C166.109 62.6075 136.665 63.0775 125.597 53.9323C123.289 52.0092 122.819 48.6332 124.486 46.1119C126.58 44.0179 128.888 43.2486 131.623 45.5563C138.161 50.0434 155.041 53.3768 156.238 42.0521C155.212 30.2146 121.922 37.3085 124.4 14.5737" fill="#8A898D"/>
<path d="M97.3495 2.77862L102.179 5.12904L106.537 8.37685L110.255 12.4794L113.119 17.3939L114.956 23.2058L115.597 29.9151L114.956 36.5817L113.119 42.3937L110.255 47.3508L106.537 51.4107L102.179 54.573L97.3495 56.8379L92.2214 58.2482L86.965 58.6755V58.7183L81.4522 58.4619L76.0249 57.2226L70.9395 55.0431L66.3241 51.8808L62.4353 47.8209L59.4439 42.7783L57.4781 36.7954L56.7943 29.9151L57.4781 23.0349L59.4439 17.052L62.4353 12.0093L66.3241 7.86405L70.9395 4.65895L76.0249 2.39402L81.4522 0.983769L86.965 0.556396L92.2214 1.24017L97.3495 2.77862ZM75.6403 13.9751L71.3668 17.7785L68.4609 23.0776L67.3925 29.9151L68.119 35.7271L70.5549 40.8552L74.401 44.9577L79.3582 47.7355L85.1274 48.8466H85.3411H85.512H85.7257H85.8966H86.1103L91.6231 48.0774L96.7512 45.8124L101.067 42.009L104.016 36.7099L105.127 29.9151L104.016 23.1203L101.067 17.8212L96.7512 14.0179L91.6231 11.7101L86.1103 10.941L80.7257 11.7101L75.6403 13.9751Z" fill="#8A898D"/>
<path d="M0 8.16284C0 5.29962 0.640975 2.43642 4.82897 2.43642C7.64946 2.43642 8.33322 3.1629 10.5127 5.29963C12.2648 7.52183 21.1109 18.5474 37.0082 38.419C37.0082 19.7867 37.0082 9.40214 37.0082 7.35088C37.0082 4.70133 39.3159 1.83813 42.0509 1.83813C45.0423 2.00907 47.4782 4.35945 47.7346 7.35088C47.7346 11.838 47.7346 47.9061 47.7346 52.3932C47.8628 55.0428 46.0679 57.3932 43.4611 57.906C40.5979 57.906 39.3159 57.265 36.9654 55.0428C35.2133 52.8206 26.3672 41.6241 10.5127 21.4533C10.5127 40.0002 10.5127 50.342 10.5127 52.3932C10.5127 55.8975 8.33325 57.906 5.47003 57.906C2.56407 57.9914 0.128204 55.7266 0 52.8206C0 52.6924 0 52.5214 0 52.3932C0 43.5472 0 17.0089 0 8.16284Z" fill="#8A898D"/>
</svg>
