<svg id="eekm11ozhowp1" xmlns="http://www.w3.org/2000/svg" xmlns:xlink="http://www.w3.org/1999/xlink" viewBox="0 0 300 150" shape-rendering="geometricPrecision" text-rendering="geometricPrecision" width="300" height="150"><style><![CDATA[#eekm11ozhowp3_to {animation: eekm11ozhowp3_to__to 4800ms linear infinite normal forwards}@keyframes eekm11ozhowp3_to__to { 0% {transform: translate(104.499977px,121px)} 2.083333% {transform: translate(116.562570px,120.391520px)} 4.166667% {transform: translate(127.125163px,117.283040px)} 6.250000% {transform: translate(137.687756px,109.174560px)} 8.333333% {transform: translate(143.958504px,99.783091px)} 10.416667% {transform: translate(149.229251px,87.391621px)} 12.500000% {transform: translate(150.499999px,75.000152px)} 14.583333% {transform: translate(153.140498px,62.830906px)} 16.666667% {transform: translate(158.280998px,51.161659px)} 18.750000% {transform: translate(166.421497px,40.492413px)} 20.833333% {transform: translate(176.096493px,33.250384px)} 22.916667% {transform: translate(186.771488px,30.008356px)} 25% {transform: translate(199.446484px,28.766327px)} 27.083333% {transform: translate(210.655322px,31.675022px)} 29.166667% {transform: translate(220.364160px,35.583718px)} 31.250000% {transform: translate(230.072998px,43.492413px)} 33.333333% {transform: translate(237.501490px,52.994993px)} 35.416667% {transform: translate(242.429981px,63.997572px)} 37.500000% {transform: translate(243.358473px,75.000152px)} 39.583333% {transform: translate(242.163060px,86.314933px)} 41.666667% {transform: translate(237.967647px,96.629713px)} 43.750000% {transform: translate(230.772234px,105.944494px)} 45.833333% {transform: translate(221.982937px,114.851854px)} 47.916667% {transform: translate(211.693640px,119.759213px)} 50% {transform: translate(201.404343px,121.666573px)} 52.083333% {transform: translate(188.682732px,120.501178px)} 54.166667% {transform: translate(177.961122px,118.335784px)} 56.250000% {transform: translate(169.239511px,112.170389px)} 58.333333% {transform: translate(158.993008px,102.780260px)} 60.416667% {transform: translate(151.746504px,88.890130px)} 62.500000% {transform: translate(150.500001px,75px)} 64.583333% {transform: translate(149.024894px,64.016869px)} 66.666667% {transform: translate(145.049787px,52.033738px)} 68.750000% {transform: translate(137.074680px,42.050607px)} 70.833333% {transform: translate(127.259837px,35.153063px)} 72.916667% {transform: translate(115.944995px,30.755519px)} 75% {transform: translate(104.630152px,29.357975px)} 77.083333% {transform: translate(93.395768px,30.814933px)} 79.166667% {transform: translate(81.161384px,34.271891px)} 81.250000% {transform: translate(70.927001px,41.728848px)} 83.333333% {transform: translate(63.964666px,51.819283px)} 85.416667% {transform: translate(59.502332px,63.409717px)} 87.500000% {transform: translate(59.039997px,75.000152px)} 89.583333% {transform: translate(60.447418px,87.390544px)} 91.666667% {transform: translate(64.854839px,99.780935px)} 93.750000% {transform: translate(75.262261px,112.171327px)} 95.833333% {transform: translate(84.144789px,117.717101px)} 97.916667% {transform: translate(94.527318px,119.762874px)} 100% {transform: translate(104.909846px,120.808647px)} }#eekm11ozhowp3_tr {animation: eekm11ozhowp3_tr__tr 4800ms linear infinite normal forwards}@keyframes eekm11ozhowp3_tr__tr { 0% {transform: rotate(0deg)} 12.500000% {transform: rotate(-91.043467deg)} 25% {transform: rotate(-0.323176deg)} 37.500000% {transform: rotate(88.203527deg)} 50% {transform: rotate(181.763424deg)} 62.500000% {transform: rotate(265.910663deg)} 75% {transform: rotate(180.667551deg)} 87.500000% {transform: rotate(88.513870deg)} 100% {transform: rotate(-1.077102deg)} }]]></style><path id="eekm11ozhowp2" d="M198.231000,19.001500C186.402000,18.920100,174.816000,22.257500,164.770000,28.525600C160.638000,31.130500,156.911000,34.386800,153.670000,38.049900C158.288000,45.132100,161.529000,53.109700,163.068000,61.494300C163.635000,59.947600,164.283000,58.563500,165.094000,57.179600C168.415000,50.992900,173.601000,46.027300,179.920000,42.934000C185.025000,40.329000,190.777000,38.945300,196.529000,38.945300C214.111000,38.945300,232.988000,51.155900,232.988000,75.414300C232.988000,99.754000,214.030000,111.883000,196.529000,111.883000C190.777000,111.883000,185.106000,110.499000,179.920000,107.976000C173.601000,104.882000,168.415000,99.835400,165.094000,93.648700C164.283000,92.264800,163.635000,90.880900,163.149000,89.334300C161.448000,84.938500,160.638000,80.217100,160.719000,75.414300C160.719000,75.414300,160.719000,75.251500,160.719000,74.925900C160.638000,74.925900,160.557000,74.925900,160.557000,74.925900C160.719000,63.203700,157.154000,51.725800,150.429000,42.120100C148.890000,40.003600,147.512000,38.456900,147.188000,38.049900C136.413000,26.490600,121.505000,19.652500,105.706000,19.082700C93.958500,19.001300,82.372600,22.339000,72.326100,28.607100C66.492700,32.351600,61.388500,37.235700,57.418500,42.934000C44.860500,62.796500,44.860500,88.194500,57.418500,108.057000C61.388500,113.837000,66.492800,118.721000,72.407200,122.384000C82.372600,128.489000,93.958500,131.502000,105.706000,130.932000C121.424000,131.095000,136.494000,124.501000,147.188000,112.860000C142.651000,105.859000,139.491000,98.044500,137.952000,89.822700C132.281000,103.499000,118.831000,112.290000,104.005000,112.046000C98.252400,111.883000,92.581100,110.499000,87.476900,107.894000C81.157300,104.720000,75.972000,99.753900,72.569200,93.567200C66.816800,82.089200,66.816800,68.576300,72.569200,57.098400C75.972000,50.911700,81.157300,45.946100,87.476900,42.852700C92.581100,40.247800,98.333400,38.863800,104.086000,38.863800C118.831000,38.538200,132.362000,47.329900,138.033000,61.087100C139.734000,65.645700,140.545000,70.448600,140.545000,75.332800C140.221000,86.973500,143.542000,98.288700,149.943000,107.894000C150.105000,108.139000,150.348000,108.383000,150.510000,108.627000C151.482000,110.092000,152.617000,111.395000,153.751000,112.697000C156.992000,116.442000,160.800000,119.617000,164.932000,122.221000C174.897000,128.327000,186.483000,131.339000,198.231000,130.850000C224.967000,130.850000,253,111.802000,253,75.414300C253,39.026700,224.967000,20.385300,198.231000,19.001500Z" fill="rgb(247,190,0)" stroke="none" stroke-width="1"/><g id="eekm11ozhowp3_to" transform="translate(104.499977,121)"><g id="eekm11ozhowp3_tr" transform="rotate(0)"><path id="eekm11ozhowp3" d="M122.167000,113.250000L111.650000,113.250000L101.980000,93.850100C101.851000,93.591800,101.664000,93.377100,101.440000,93.227900C101.215000,93.078600,100.960000,93,100.701000,93L94.673700,93C93.695600,93,92.989800,94.072600,93.258500,95.150500L97.770000,113.250000L88.305400,113.250000L84.330300,107.175000C84.052500,106.750000,83.615400,106.500000,83.152600,106.500000L79.472900,106.500000C78.515000,106.500000,77.812000,107.531000,78.044800,108.597000L80.944200,120L78.044800,131.403000C77.812000,132.469000,78.515000,133.500000,79.472900,133.500000L83.152600,133.500000C83.616300,133.500000,84.052500,133.250000,84.330300,132.825000L88.305400,126.750000L97.770000,126.750000L93.258500,144.848000C92.989800,145.926000,93.695600,147,94.673700,147L100.701000,147C101.229000,147,101.716000,146.675000,101.979000,146.150000L111.650000,126.750000L122.167000,126.750000C125.419000,126.750000,131,123.728000,131,120C131,116.272000,125.419000,113.250000,122.167000,113.250000Z" transform="translate(-104.499977,-120)" fill="rgb(232,31,118)" stroke="none" stroke-width="1"/></g></g></svg>