<svg width="33" height="10" viewBox="0 0 33 10" fill="none" xmlns="http://www.w3.org/2000/svg">
<path fill-rule="evenodd" clip-rule="evenodd" d="M19.7812 5.0027C19.7812 5.83182 19.4355 6.62699 18.8202 7.21327C18.2048 7.79955 17.3702 8.12891 16.5 8.12891C15.6298 8.12891 14.7952 7.79955 14.1798 7.21327C13.5645 6.62699 13.2188 5.83182 13.2188 5.0027C13.2188 4.17357 13.5645 3.37841 14.1798 2.79213C14.7952 2.20585 15.6298 1.87648 16.5 1.87648C17.3702 1.87648 18.2048 2.20585 18.8202 2.79213C19.4355 3.37841 19.7812 4.17357 19.7812 5.0027ZM21.6581 5.94056C21.4276 7.08292 20.7865 8.11306 19.8452 8.8539C18.9038 9.59475 17.721 10 16.5 10C15.279 10 14.0962 9.59475 13.1548 8.8539C12.2135 8.11306 11.5724 7.08292 11.3419 5.94056H0.984375C0.723303 5.94056 0.472923 5.84175 0.288317 5.66587C0.103711 5.48998 0 5.25143 0 5.0027C0 4.75396 0.103711 4.51541 0.288317 4.33953C0.472923 4.16364 0.723303 4.06483 0.984375 4.06483H11.3419C11.571 2.92138 12.2115 1.88984 13.153 1.14789C14.0946 0.405934 15.2782 0 16.5 0C17.7218 0 18.9054 0.405934 19.847 1.14789C20.7885 1.88984 21.429 2.92138 21.6581 4.06483H32.0156C32.2767 4.06483 32.5271 4.16364 32.7117 4.33953C32.8963 4.51541 33 4.75396 33 5.0027C33 5.25143 32.8963 5.48998 32.7117 5.66587C32.5271 5.84175 32.2767 5.94056 32.0156 5.94056H21.6581Z" fill="#f7be00"/>
</svg>
